<?xml version="1.0" encoding="UTF-8"?>
<svg xmlns="http://www.w3.org/2000/svg" width="1672" height="941" viewBox="0 0 1672 941" role="img" aria-label="logo">
<g fill-rule="evenodd">
<path d="M 314 197.110 C 281.054 200.848, 242.940 215.091, 214 234.479 C 163.165 268.535, 128.920 318.277, 115.055 378.199 C 98.567 449.454, 121.954 529.338, 173.602 578.185 C 178.911 583.206, 179.114 583.303, 178.412 580.464 C 178.009 578.834, 175.056 574.046, 171.851 569.825 C 135.645 522.137, 117.171 463.674, 121.984 412.017 C 128.966 337.079, 167.319 275.730, 230.840 237.891 C 263.671 218.334, 301.065 208, 339 208 C 387.135 208, 431.275 223.663, 476.959 256.953 C 496.029 270.850, 508 278.967, 508 278.001 C 508 276.542, 497.119 264.262, 489.392 257 C 454.198 223.926, 411.633 203.626, 364.699 197.532 C 352.063 195.892, 326.609 195.680, 314 197.110 M 1411.281 351.980 C 1402.697 367.644, 1383.029 389.131, 1368.783 398.407 C 1357.576 405.704, 1344.368 411.542, 1333.283 414.097 C 1320.640 417.012, 1289.879 417.786, 1273.542 415.600 C 1259.445 413.714, 1260 413.740, 1260 414.965 C 1260 416.200, 1276.954 421.514, 1288 423.741 C 1301.316 426.425, 1331.605 426.124, 1343.377 423.190 C 1374.862 415.342, 1400.729 389.657, 1412.435 354.617 C 1414.377 348.806, 1413.774 347.430, 1411.281 351.980 M 1484.928 372.173 C 1456.390 414.646, 1417.534 440.748, 1371.012 448.699 C 1360.330 450.524, 1330.916 451.042, 1317 449.649 C 1306.019 448.550, 1307.209 450.045, 1320.010 453.428 C 1353.933 462.394, 1384.385 460.804, 1415.093 448.462 C 1444.322 436.716, 1466.629 415.571, 1481.960 385.079 C 1486.732 375.589, 1490.265 366.931, 1489.626 366.293 C 1489.380 366.047, 1487.266 368.693, 1484.928 372.173 M 544.179 379.104 C 540.713 380.607, 539.979 381.357, 540.466 382.893 C 543.835 393.507, 545.040 433.464, 542.551 452 C 537.440 490.059, 524.074 523.203, 500.208 557 C 486.970 575.748, 457.934 602.418, 439.242 613 C 434.485 615.693, 433.053 617.034, 433.030 618.817 C 432.991 621.828, 434.856 621.293, 445.500 615.236 C 476.531 597.581, 503.736 571.518, 522.240 541.720 C 538.784 515.078, 550.742 479.763, 554.132 447.536 C 556.229 427.600, 553.044 381.420, 549.337 378.003 C 548.877 377.578, 546.556 378.074, 544.179 379.104 M 1514.127 429.074 C 1469.748 475.830, 1420.156 495.039, 1363.213 487.528 C 1337.152 484.091, 1321.306 478.660, 1259.500 451.981 C 1207.792 429.661, 1174.432 424.895, 1141.750 435.159 C 1138.037 436.325, 1135 437.714, 1135 438.246 C 1135 438.778, 1135.787 438.909, 1136.750 438.537 C 1137.713 438.164, 1144.800 437.605, 1152.500 437.295 C 1182.363 436.090, 1203.039 441.775, 1256 465.752 C 1314.793 492.370, 1332.953 498.513, 1363.452 502.099 C 1377.656 503.770, 1407.859 502.706, 1419.500 500.125 C 1464.437 490.162, 1498.325 464.640, 1524.893 420.750 C 1528.689 414.479, 1526.027 416.537, 1514.127 429.074 M 1031.646 435.985 C 1007.978 438.988, 985.108 447.189, 971.540 457.538 C 966.894 461.081, 967.012 462.544, 971.750 460.129 C 1001.867 444.775, 1040.124 441.904, 1080.099 451.998 C 1099.641 456.932, 1113.972 462.593, 1153.500 480.988 C 1185.544 495.901, 1204.891 503.096, 1222.158 506.522 C 1233.630 508.797, 1253.344 509.485, 1265.696 508.040 C 1279.934 506.375, 1281.996 505.075, 1270.500 505.011 C 1239.263 504.838, 1213.833 496.973, 1166 472.692 C 1127.271 453.032, 1104.787 444.039, 1080.500 438.493 C 1068.156 435.674, 1043.910 434.429, 1031.646 435.985 M 1242.388 607.980 C 1238.791 609.434, 1236 613.913, 1236 618.235 C 1236 623.046, 1241.163 629, 1245.335 629 C 1251.395 629, 1256.987 623.821, 1256.996 618.200 C 1257.008 610.789, 1249.111 605.264, 1242.388 607.980" stroke="none" fill="#a95d2a" fill-rule="evenodd"/>
<path d="M 410 253.581 C 408.625 253.824, 404.800 254.507, 401.500 255.097 C 393.418 256.544, 379.857 261.070, 380.232 262.195 C 380.398 262.693, 384.147 264.316, 388.562 265.801 C 404.189 271.055, 416.142 280.266, 430.943 298.459 C 452.417 324.855, 465.603 332.977, 491.852 335.978 C 506.282 337.628, 528.771 334.590, 529.747 330.859 C 530.011 329.849, 530.618 329.264, 531.095 329.559 C 531.572 329.854, 536.481 328.274, 542.002 326.048 C 553.779 321.299, 556.254 321.092, 559.486 324.579 L 561.876 327.159 567.688 323.116 C 570.885 320.893, 581.526 312.758, 591.337 305.038 C 601.147 297.318, 609.918 290.586, 610.828 290.076 C 614.059 288.268, 611.148 287.926, 604.875 289.375 C 601.375 290.184, 598.378 290.711, 598.214 290.548 C 597.244 289.577, 627.550 279.976, 638.191 277.883 C 648.170 275.919, 667.396 278.596, 669.663 282.264 C 670.098 282.968, 669.682 283.092, 668.460 282.623 C 665.150 281.353, 651.383 280.686, 649.558 281.708 C 648.022 282.567, 648.256 282.953, 651.459 284.843 C 653.893 286.279, 655.793 288.538, 657.153 291.612 C 659.666 297.294, 659.242 300.955, 654.485 314.616 C 651.504 323.175, 651.232 324.719, 652.394 326.478 C 654.509 329.681, 656.990 329.407, 670.034 324.528 C 676.773 322.007, 685.484 319.475, 689.393 318.902 C 710.230 315.845, 721 312.860, 721 310.143 C 721 309.695, 717.063 306.985, 712.250 304.122 C 701.060 297.464, 688.399 286.786, 684.302 280.549 C 673.746 264.482, 660.630 258.194, 640 259.308 C 624.645 260.138, 615.033 263.272, 590.500 275.447 C 565.097 288.054, 556.085 290.956, 539.975 291.714 C 520.876 292.612, 509.343 288.720, 483.570 272.677 C 461.791 259.121, 446.619 254.156, 425 253.511 C 418.125 253.306, 411.375 253.337, 410 253.581 M 309.667 279.222 C 306.408 280.086, 302.771 282.967, 297.500 288.863 C 296.950 289.478, 294.976 291.202, 293.114 292.694 C 291.252 294.186, 289.114 296.876, 288.364 298.671 C 286.719 302.608, 286.580 311.801, 288.106 315.685 C 288.715 317.233, 289.598 321.810, 290.070 325.855 C 290.580 330.237, 291.792 334.677, 293.067 336.838 C 294.720 339.639, 295.075 341.435, 294.626 344.713 C 293.542 352.619, 291.521 355.883, 286.284 358.184 C 283.653 359.340, 280.251 361.327, 278.724 362.600 C 277.198 363.872, 273.485 365.608, 270.474 366.457 C 267.463 367.306, 262.561 368.687, 259.579 369.526 C 247.674 372.878, 238.133 386.293, 235.772 403 C 234.733 410.353, 234.069 412.141, 230.858 416.248 C 225.832 422.676, 223.108 430.450, 221.441 443.128 C 219.736 456.096, 219.207 457.547, 213.736 464.263 C 206.175 473.546, 203.803 481.492, 198.451 515.467 C 195.680 533.055, 194.030 540.542, 191.349 547.699 L 187.857 557.021 189.324 565.615 C 190.747 573.948, 190.939 574.341, 195.646 578.564 C 198.316 580.960, 201.301 583.197, 202.279 583.536 C 204.173 584.193, 208.951 580.465, 208.983 578.307 C 209.015 576.044, 204.738 569.887, 203.471 570.373 C 202.618 570.700, 201.986 569.392, 201.532 566.362 C 200.755 561.186, 202.755 557, 206.004 557 C 208.418 557, 209.093 559.545, 208.754 567.363 C 208.548 572.116, 208.843 573.441, 210.313 574.363 C 211.795 575.293, 212.460 575.093, 213.960 573.266 C 216.842 569.757, 216.746 547.605, 213.820 540.802 L 211.717 535.914 214.575 528.813 C 217.577 521.357, 222.602 513.541, 229.243 506 C 236.664 497.572, 239.968 488.392, 239.988 476.143 C 239.999 469.543, 239.820 468.856, 238.250 469.463 C 233.963 471.122, 231.281 471.174, 230.681 469.611 C 230.177 468.297, 230.385 468.223, 231.909 469.175 C 234.622 470.870, 239.963 467.182, 246.440 459.140 C 255.979 447.298, 262.234 432.875, 264.454 417.606 L 265.166 412.711 261.446 413.315 L 257.727 413.919 262.113 411.135 L 266.500 408.351 270.545 415.909 C 278.155 430.127, 288.998 434.741, 305.031 430.582 C 311.772 428.833, 312.463 429.190, 306.791 431.490 C 295.795 435.949, 282.991 433.716, 274.782 425.908 C 272.523 423.758, 270.523 422, 270.337 422 C 270.152 422, 270 423.589, 270 425.532 C 270 427.475, 269.325 430.680, 268.500 432.654 C 267.675 434.629, 267 437.202, 267.001 438.372 C 267.002 441.408, 271.930 451.417, 277.247 459.184 C 282.368 466.663, 284 472.451, 284 483.126 C 284 489.508, 284.260 490.414, 286.831 492.984 C 293.264 499.417, 313.597 502.281, 326.500 498.571 C 334.321 496.322, 345.621 490.864, 349.860 487.287 C 353.194 484.475, 353.227 484.362, 354.063 472.976 C 355.066 459.312, 355.798 456.558, 361.446 445.194 C 363.822 440.412, 366.098 435.150, 366.502 433.500 C 367.537 429.282, 368.705 418, 368.107 418 C 367.833 418, 366.263 419.238, 364.617 420.750 L 361.625 423.500 364.642 419.500 C 366.302 417.300, 369.055 413.025, 370.762 410 C 372.468 406.975, 375.327 403.150, 377.116 401.500 L 380.368 398.500 377.170 402.495 L 373.972 406.490 378.236 407.646 C 380.581 408.282, 385.754 409.972, 389.731 411.401 C 402.112 415.851, 418.127 414.730, 431.873 408.452 C 435.493 406.798, 436.834 406.495, 435.981 407.523 C 434.483 409.327, 434.524 409.373, 438.899 410.852 C 443.634 412.451, 451.241 412.285, 453.559 410.532 C 454.626 409.724, 456.850 409.044, 458.500 409.021 C 469.881 408.859, 486.338 399.144, 511 378.028 C 527.513 363.890, 527.710 363.775, 535.774 363.559 C 545.012 363.311, 556.455 358.506, 560.861 353.023 C 562.588 350.875, 564 348.677, 564 348.140 C 564 347.602, 564.641 345.888, 565.425 344.331 C 567.671 339.866, 569.319 333.325, 568.522 332.036 C 568.045 331.263, 566.456 331.085, 563.897 331.517 C 560.072 332.164, 560 332.119, 560 329.111 C 560 324.380, 556.162 322.221, 551.600 324.386 C 549.729 325.274, 547.674 326, 547.034 326 C 544.961 326, 535.589 330.260, 532.229 332.730 C 530.326 334.128, 527.499 338.031, 525.470 342.060 C 521.635 349.674, 520.166 350.877, 506.010 357.995 C 497.254 362.398, 482.743 367.491, 468.855 371.037 C 459.623 373.394, 456.364 374.856, 450.281 379.370 C 446.020 382.531, 444.991 384.497, 447.212 385.237 C 448.056 385.519, 447.757 386.682, 446.229 389.071 C 444.006 392.544, 443.145 392.466, 445.020 388.962 C 445.881 387.354, 445.451 386.665, 442.269 384.559 C 433.314 378.633, 419.464 375.998, 407.239 377.895 L 400.003 379.018 394.066 374.965 C 383.876 368.010, 377.068 365.767, 364.500 365.225 C 356.853 364.895, 352.433 364.221, 350 363.012 C 348.075 362.056, 344.137 360.501, 341.250 359.557 C 336.836 358.113, 336 357.454, 336 355.420 C 336 353.198, 336.390 353, 340.777 353 C 346.920 353, 350 350.914, 350 346.753 C 350 341.563, 352.319 332, 353.578 332 C 356.863 332, 357.202 329.122, 354.591 323.417 C 353.166 320.305, 351.997 316.125, 351.994 314.129 C 351.991 312.133, 351.517 308.802, 350.941 306.726 C 350.036 303.467, 350.173 302.596, 351.946 300.341 C 354.375 297.254, 354.506 295.146, 352.560 290.490 C 350.670 285.966, 346.277 283.418, 339.067 282.665 C 335.844 282.328, 330.893 281.141, 328.066 280.026 C 322.573 277.861, 315.905 277.569, 309.667 279.222 M 436.394 281.213 C 437.436 281.921, 443.458 286.237, 449.776 290.804 C 469.615 305.145, 478.681 308.622, 498.500 309.492 L 509.500 309.975 501 308.538 C 488.768 306.470, 476.719 302.060, 461.672 294.145 C 439.061 282.250, 434.440 279.886, 436.394 281.213 M 623.186 288.002 C 618.857 289.966, 603.703 301.216, 581.696 318.802 C 570.520 327.733, 569.927 328.390, 570.535 331.158 C 570.955 333.072, 570.632 334.912, 569.599 336.488 C 567.789 339.251, 567.630 339.090, 576.197 343.159 C 579.331 344.648, 586.266 348.850, 591.608 352.497 C 608.604 364.101, 616.409 367, 630.661 367 C 641.533 367, 647.918 365.587, 657 361.172 C 664.533 357.510, 671.350 351.436, 687.191 334.273 C 690.321 330.881, 694.709 326.898, 696.941 325.420 C 702.322 321.859, 702.063 321, 695.605 321 C 689.806 321, 680.704 323.472, 671.472 327.555 C 649.916 337.088, 643.407 332.505, 651.135 313.233 C 658.450 294.989, 653.142 286.044, 635 286.044 C 629.690 286.044, 626.241 286.615, 623.186 288.002 M 335.305 307.159 C 331.607 308.630, 330.022 309.838, 329.805 311.347 C 329.637 312.514, 328.063 314.376, 326.307 315.484 C 323.798 317.068, 322.969 318.427, 322.432 321.830 C 321.660 326.723, 319.629 328.153, 317.397 325.375 C 315.969 323.599, 315.946 323.616, 316.945 325.684 C 318.584 329.077, 318.250 330.299, 315.856 329.673 C 314.668 329.362, 314.110 329.489, 314.606 329.959 C 315.098 330.425, 316.382 330.965, 317.460 331.159 C 318.704 331.383, 319.646 332.606, 320.037 334.506 C 321.251 340.408, 322.678 341.729, 330.743 344.414 C 335.013 345.836, 339.757 347, 341.285 347 C 344.349 347, 345.846 344.724, 344.136 342.663 C 343.345 341.711, 343.380 341.020, 344.265 340.135 C 345.223 339.177, 345.178 338.728, 344.056 338.035 C 342.820 337.271, 342.821 336.919, 344.064 335.416 C 344.854 334.462, 345.500 332.515, 345.500 331.090 C 345.500 329.165, 346.078 328.418, 347.750 328.180 C 350.461 327.795, 350.498 327.399, 348.230 322.952 C 347.021 320.580, 345.890 319.590, 344.659 319.827 C 343.503 320.050, 342.664 319.431, 342.315 318.098 C 342.017 316.957, 341.405 316.250, 340.955 316.528 C 340.506 316.805, 339.869 316.598, 339.541 316.066 C 338.815 314.892, 342.110 313, 344.882 313 C 346.772 313, 346.816 312.770, 345.602 309.250 C 344.036 304.707, 342.336 304.361, 335.305 307.159 M 543.543 334.274 C 540.330 336.094, 539.439 337.266, 538.800 340.508 C 538.204 343.538, 536.781 345.608, 532.894 349.099 L 527.774 353.697 531.354 355.910 C 534.879 358.088, 535.026 358.096, 540.950 356.434 C 549.360 354.074, 549.895 353.042, 544.999 348.618 C 541.112 345.107, 541.025 344.892, 542.537 342.584 C 543.400 341.268, 544.203 338.910, 544.322 337.345 C 544.495 335.073, 545.239 334.260, 548.019 333.306 C 550.167 332.570, 550.734 332.098, 549.500 332.073 C 548.400 332.051, 545.719 333.041, 543.543 334.274 M 314.669 353.404 C 313.657 370.002, 314.148 369.315, 302.433 370.530 L 292.500 371.560 299.918 372.236 C 304.510 372.654, 309.135 373.802, 312.057 375.248 C 314.653 376.533, 316.583 377.076, 316.344 376.455 C 316.106 375.834, 317.776 373.115, 320.055 370.413 C 322.334 367.711, 325.503 362.800, 327.098 359.500 L 329.997 353.500 326.057 352.186 C 323.890 351.464, 320.580 349.171, 318.701 347.090 L 315.284 343.308 314.669 353.404 M 326.071 373.275 C 324.846 375.218, 324.497 375.249, 335 372.471 L 339.500 371.281 333.345 371.390 C 328.618 371.475, 326.931 371.912, 326.071 373.275 M 330.960 425.452 C 333.701 428.755, 348.063 430.743, 352.251 428.399 C 353.365 427.776, 351.479 427.588, 346.587 427.835 C 340.745 428.131, 338.289 427.779, 334.507 426.106 C 331.239 424.661, 330.134 424.457, 330.960 425.452 M 844.500 475.076 C 822.571 478.386, 809.185 496.148, 807.329 524.400 L 806.711 533.806 801.106 534.462 C 792.408 535.481, 792 535.710, 792 539.567 L 792 543 799.500 543 L 807 543 807 579.050 C 807 622.867, 807.530 620.994, 794.500 623.184 C 793.326 623.382, 792.368 624.446, 792.180 625.760 L 791.861 628 817 628 L 842.139 628 841.820 625.824 C 841.558 624.042, 840.451 623.440, 835.698 622.495 C 824.973 620.362, 825.546 622.685, 825.204 579.973 L 824.908 543 837.935 543 C 850.625 543, 850.975 542.942, 851.477 540.750 C 852.859 534.713, 852.475 534.525, 838.156 534.221 L 825 533.942 825.035 522.721 C 825.071 511.114, 826.875 498.039, 829.013 493.883 C 831.219 489.597, 836.358 484.981, 840.020 483.995 C 845.431 482.538, 849.860 484.221, 854.500 489.498 C 859.671 495.380, 864.235 496.422, 868.552 492.709 C 874.467 487.621, 871.365 478.205, 863.065 476.053 C 856.934 474.464, 850.723 474.137, 844.500 475.076 M 352.304 487.963 C 347.633 493.231, 337.790 498.870, 328.664 501.506 C 324.145 502.812, 319.856 503.113, 309.664 502.840 C 297.268 502.508, 296.186 502.314, 291.125 499.517 C 288.169 497.883, 285.284 495.523, 284.715 494.273 C 283.375 491.333, 282.610 491.409, 279.991 494.739 C 278.240 496.964, 277.945 498.322, 278.415 501.989 C 279.335 509.174, 279.338 509.363, 278.552 512.207 C 277.598 515.664, 280.921 518.981, 287.733 521.369 L 292.500 523.041 287.709 522.639 C 285.075 522.417, 282.114 521.508, 281.131 520.618 C 278.324 518.078, 277.215 518.626, 273.544 524.363 C 268.860 531.686, 266.020 540.648, 264.795 551.979 C 263.935 559.932, 263.313 562.080, 261.020 565.020 C 256.875 570.336, 254.360 575.850, 253.047 582.500 C 252.395 585.800, 251.619 589.348, 251.321 590.385 C 251.023 591.421, 254.767 588.233, 259.640 583.301 C 266.451 576.407, 273.242 571.139, 289 560.528 C 312.051 545.007, 323.292 536.520, 333.293 527.085 C 344.384 516.622, 356 501.186, 356 496.910 C 356 496.267, 351.931 499.828, 346.958 504.825 C 332.999 518.851, 315.803 528.476, 302.822 529.528 L 296.500 530.041 301.880 528.508 C 321.335 522.963, 350.047 503.668, 355.894 492.208 C 360.236 483.696, 358.210 481.301, 352.304 487.963 M 357.468 498.250 C 353.377 517.481, 325.775 546.128, 293.637 564.497 C 267.075 579.679, 252.669 592.115, 245.562 606 C 243.202 610.611, 239.658 615.497, 236.362 618.685 L 231 623.870 231 630.455 C 231 635.250, 230.300 638.733, 228.425 643.270 C 227.009 646.696, 224.493 653.325, 222.833 658 C 220.936 663.345, 218.376 668.225, 215.935 671.148 C 209.178 679.238, 207.591 682.598, 208.961 685.905 C 209.612 687.478, 211.486 690.049, 213.124 691.619 L 216.103 694.473 223.489 690.670 C 239.306 682.528, 263.298 661.215, 279.402 641 C 292.122 625.033, 330.148 566.482, 338.493 550.013 C 341.882 543.326, 342.500 543.620, 339.468 550.476 C 326.242 580.384, 298.374 627.345, 280.409 650 C 263.653 671.131, 240.426 690.997, 222.847 699.234 L 217.194 701.883 215.960 698.904 C 214.239 694.750, 212.836 695.712, 211.354 702.063 C 209.521 709.914, 209.723 714.033, 212.133 717.987 C 214.025 721.091, 214.188 722.396, 213.612 729.881 C 213.237 734.767, 212.138 740.161, 210.988 742.761 C 208.606 748.145, 194.132 763, 191.267 763 C 188.170 763, 184 767.474, 184 770.797 C 184 774.372, 187.098 777.421, 189.844 776.549 C 190.937 776.203, 192.121 776.387, 192.475 776.959 C 193.254 778.220, 202.660 778.359, 203.425 777.121 C 203.724 776.638, 206.658 776.048, 209.947 775.810 C 216.617 775.328, 219.421 773.521, 221.641 768.274 C 222.392 766.500, 224.328 764.365, 225.943 763.530 C 230.606 761.118, 232 758.290, 232 751.238 C 232 744.412, 233.488 740.604, 239.662 731.628 C 243.571 725.946, 243.015 724.102, 237.927 725.876 C 233.676 727.358, 227.074 727.247, 224.188 725.646 C 222.141 724.511, 222.543 724.410, 227.688 724.774 C 232.909 725.143, 236.561 724.390, 243.042 721.608 C 244.223 721.100, 244.573 721.594, 244.542 723.723 C 244.504 726.226, 244.875 726.531, 248.301 726.813 C 260.184 727.793, 282.245 714.653, 296.971 697.824 C 321.758 669.497, 351.502 604.201, 361.951 555.176 C 364.224 544.510, 364.495 547.933, 362.535 562.564 C 357.604 599.380, 348.331 628.316, 331.661 658.909 L 325.989 669.318 328.516 672.409 C 329.906 674.109, 332.250 677.236, 333.725 679.357 L 336.407 683.214 334.589 687.857 C 331.133 696.682, 331.296 699.600, 335.463 703.530 C 339.326 707.173, 340.987 707.837, 341.019 705.750 C 341.030 705.063, 343.928 702.811, 347.459 700.746 C 358.526 694.275, 368.619 685.460, 376.989 674.952 C 389.767 658.914, 392.772 654.079, 401.819 635 C 402.931 632.656, 402.969 632.718, 402.433 636 C 400.700 646.600, 394.851 660.676, 387.326 672.350 C 377.995 686.828, 349.938 711.854, 346.364 708.887 C 345.651 708.295, 344.525 707.992, 343.862 708.213 C 342.151 708.783, 349.569 716.731, 353.872 718.939 C 356.981 720.534, 357.535 721.428, 358.631 726.622 C 360.607 735.987, 360.294 741.827, 357.490 747.849 C 354.681 753.884, 354.546 754.910, 356.110 758.343 C 357.584 761.577, 360.975 762.995, 367.297 763.022 C 372.720 763.045, 377.789 765.025, 383.898 769.507 C 386.593 771.484, 388.490 772, 393.072 772 C 396.248 772, 401.075 772.514, 403.798 773.143 C 409.736 774.513, 416.270 772.114, 416.804 768.365 C 417.131 766.079, 412.918 762, 410.231 762 C 409.407 762, 406.981 761.475, 404.840 760.834 C 399.744 759.307, 381.671 742.287, 382.110 739.428 C 382.273 738.367, 382.061 736.184, 381.640 734.575 C 381.097 732.500, 381.392 730.688, 382.655 728.342 C 385.203 723.611, 383.326 722.014, 379.249 725.444 C 375.842 728.311, 371.827 729.119, 374 726.500 C 375.046 725.239, 374.866 724.993, 372.872 724.953 C 371.191 724.920, 371.916 724.353, 375.361 723.008 C 378.035 721.963, 380.995 720.409, 381.940 719.554 C 384.296 717.422, 385.282 717.604, 384.032 719.939 C 382.601 722.615, 383.827 723.045, 388.400 721.473 C 393.866 719.594, 401.807 711.511, 403.105 706.505 C 404.903 699.567, 405.957 695.864, 410.077 682 C 417.592 656.717, 419.594 637.622, 416.462 621.111 C 410.554 589.967, 386.496 535.050, 370.967 517.260 C 368.575 514.520, 367.086 511.679, 366.757 509.227 C 366.247 505.423, 360.559 495, 358.994 495 C 358.535 495, 357.848 496.462, 357.468 498.250 M 927.878 532.990 L 919.256 535.776 913.378 533.788 C 905.420 531.095, 890.179 531.636, 881.753 534.909 C 859.219 543.662, 852.063 572.473, 868.464 588.413 C 870.995 590.873, 873.948 593.166, 875.026 593.508 C 876.657 594.026, 875.941 594.833, 870.756 598.315 C 863.227 603.372, 860.040 608.413, 860.016 615.300 C 859.995 621.682, 862.141 625.499, 867.751 629.057 C 870.303 630.676, 871.834 632, 871.153 632 C 869.383 632, 859.810 639.249, 856.703 642.941 C 854.398 645.680, 852.011 651.561, 852.011 654.500 C 852.011 660.321, 858.257 669.530, 864.338 672.675 C 884.365 683.031, 919.173 681.430, 936.777 669.342 C 958.695 654.293, 956.737 626, 933.298 619.080 C 927.781 617.450, 921.951 616.924, 902.353 616.284 C 880.267 615.563, 878.018 615.326, 876.004 613.504 C 872.093 609.964, 874.935 601.279, 881.091 597.958 C 882.067 597.432, 884.579 597.688, 887.591 598.622 C 894.319 600.707, 906.698 599.972, 914.344 597.033 C 933.918 589.508, 942.749 569.120, 934.070 551.491 C 932.333 547.963, 929.746 544.159, 928.321 543.038 L 925.730 541 934.794 541 C 944.616 541, 947 539.942, 947 535.584 C 947 529.532, 941.066 528.727, 927.878 532.990 M 609.410 534.324 C 596.534 538.610, 588.186 546.172, 587.260 554.390 C 586.599 560.253, 589.167 563, 595.311 563 C 601.283 563, 603.493 560.664, 604.859 552.910 C 606.069 546.041, 608.506 542.592, 613.718 540.371 C 621.530 537.042, 631.673 540.393, 635.423 547.540 C 637.035 550.614, 637.576 553.780, 637.839 561.687 L 638.178 571.875 633.839 572.979 C 611.940 578.553, 596.848 584.682, 589.813 590.859 C 584.554 595.477, 581.631 602.991, 582.285 610.208 C 584.290 632.321, 612.097 637.890, 633.492 620.463 L 638.637 616.273 640.835 621.065 C 645.976 632.271, 659.776 633.160, 671.315 623.028 C 676.996 618.040, 676.023 614.839, 669.638 617.507 C 664.629 619.600, 660.658 619.384, 658.405 616.897 C 656.640 614.950, 656.463 612.467, 656 583.147 C 655.522 552.909, 655.402 551.316, 653.289 547.366 C 650.442 542.043, 645.841 537.474, 640.634 534.798 C 634.110 531.445, 618.759 531.212, 609.410 534.324 M 689 535.472 C 678.622 538.135, 676.500 538.995, 676.500 540.542 C 676.500 541.899, 677.645 542.689, 680.723 543.452 C 688.583 545.402, 688.315 544.245, 688.667 577.674 C 689.025 611.720, 689.419 613.913, 696.598 621.898 C 708.186 634.786, 729.347 633.347, 744.788 618.622 C 750.252 613.411, 750.507 613.285, 750.654 615.737 C 751.158 624.159, 752.276 629.169, 753.780 629.746 C 755.497 630.405, 767.929 628.061, 776.807 625.404 C 781.293 624.062, 782.067 623.482, 781.807 621.658 C 781.555 619.887, 780.645 619.402, 776.738 618.953 C 768.072 617.957, 768.539 620.448, 768.208 573.465 C 767.938 535.116, 767.788 532.004, 766.208 532.054 C 765.269 532.083, 758.650 533.581, 751.500 535.382 C 740.203 538.227, 738.459 538.937, 738.183 540.805 C 737.914 542.633, 738.499 543.056, 742.086 543.630 C 750.136 544.917, 750 544.368, 750 575.566 C 750 593.945, 749.627 603.859, 748.880 605.316 C 745.038 612.809, 735.346 618, 725.197 618 C 717.757 618, 713.231 615.588, 710 609.901 L 707.500 605.500 707 569 L 706.500 532.500 704 532.382 C 702.625 532.318, 695.875 533.708, 689 535.472 M 972.500 534.938 C 967 536.449, 961.263 537.990, 959.750 538.362 C 954.169 539.734, 957.071 543.944, 963.628 543.986 C 968.253 544.016, 968.468 545.391, 969.018 578.401 C 969.517 608.321, 969.625 609.699, 971.888 614.742 C 976.502 625.027, 985.003 630.333, 997 630.416 C 1003.592 630.461, 1005.408 630.035, 1012 626.896 C 1016.125 624.932, 1022.029 621.011, 1025.120 618.181 L 1030.739 613.037 1031.224 620.587 C 1031.915 631.356, 1032.235 631.543, 1044.765 628.509 C 1058.201 625.256, 1062.249 623.537, 1061.816 621.269 C 1061.566 619.965, 1060.195 619.352, 1056.601 618.939 C 1047.644 617.908, 1048 619.797, 1048 573.358 C 1048 539.107, 1047.780 532.853, 1046.561 532.385 C 1045.769 532.081, 1039.131 533.369, 1031.811 535.248 C 1020.348 538.189, 1018.457 538.957, 1018.188 540.775 C 1017.930 542.519, 1018.538 543.002, 1021.688 543.555 C 1023.785 543.923, 1026.532 544.872, 1027.792 545.663 L 1030.085 547.102 1029.792 576.664 L 1029.500 606.227 1024.761 610.515 C 1014.239 620.039, 998.428 620.672, 991.691 611.840 C 987.781 606.713, 987.016 598.860, 987.008 563.750 L 987 532 984.750 532.096 C 983.513 532.148, 978 533.428, 972.500 534.938 M 1093.104 534.077 C 1076.952 539.343, 1069.472 555.784, 1076.750 570.021 C 1080.483 577.323, 1084.339 580.084, 1100.538 587.052 C 1117.354 594.286, 1120.438 596.289, 1123.072 601.685 C 1130.241 616.370, 1111.071 628.820, 1094.220 620.422 C 1087.837 617.242, 1084.677 613.589, 1080.230 604.250 C 1077.743 599.027, 1076.250 597, 1074.889 597 C 1073.189 597, 1073.001 597.825, 1073.009 605.250 C 1073.013 609.788, 1073.292 615.786, 1073.628 618.581 L 1074.238 623.661 1080.938 626.268 C 1113.257 638.841, 1145.703 622.455, 1140.223 596.327 C 1137.870 585.111, 1131.743 579.816, 1110.341 570.502 C 1092.810 562.873, 1089.998 560.485, 1090.004 553.234 C 1090.011 543.607, 1097.066 538.260, 1108.509 539.209 C 1116.667 539.886, 1121.498 543.635, 1126.332 553.043 C 1128.837 557.918, 1130.839 560.612, 1132.114 560.824 C 1133.970 561.132, 1134.051 560.570, 1133.782 549.327 L 1133.500 537.507 1127.500 535.091 C 1118.844 531.605, 1102.190 531.114, 1093.104 534.077 M 1177.500 532.673 C 1167.424 534.897, 1157.556 542.756, 1154.958 550.626 C 1152.985 556.606, 1154.110 567.057, 1157.235 571.780 C 1161.220 577.800, 1165.305 580.446, 1181.616 587.567 C 1201.220 596.127, 1204.685 599.516, 1203.753 609.222 C 1202.606 621.153, 1187.319 626.950, 1174.218 620.421 C 1168.139 617.392, 1164.413 613.009, 1159.796 603.456 C 1154.805 593.128, 1153.563 593.984, 1153.210 608 C 1152.815 623.637, 1152.659 623.271, 1161.046 626.380 C 1189.911 637.079, 1217.699 626.596, 1219.706 604.250 C 1221.007 589.760, 1213.750 580.525, 1195.168 573.022 C 1174.187 564.552, 1170 561.290, 1170 553.416 C 1170 547.147, 1172.304 543.219, 1177.316 540.943 C 1189.191 535.552, 1202.419 542.141, 1207.371 555.912 C 1208.880 560.107, 1209.622 561, 1211.600 561 C 1213.987 561, 1214 560.940, 1214 550.071 C 1214 537.208, 1213.851 536.961, 1204.349 534.026 C 1198.129 532.105, 1183.432 531.364, 1177.500 532.673 M 892.256 539.068 C 883.303 541.790, 878.473 552.103, 879.185 566.983 C 879.922 582.393, 886.366 591.361, 897.592 592.597 C 905.176 593.432, 910.628 590.198, 914.495 582.571 C 917.272 577.092, 917.500 575.838, 917.500 566.071 C 917.500 556.496, 917.234 554.958, 914.676 549.749 C 910.319 540.876, 900.965 536.420, 892.256 539.068 M 1467 548.500 C 1458.762 550.962, 1456.992 553.104, 1461.808 554.783 C 1464.460 555.708, 1464.774 556.319, 1465.336 561.649 C 1466.307 570.857, 1465.133 621.135, 1463.913 622.605 C 1463.331 623.306, 1461.880 624.019, 1460.688 624.190 C 1459.496 624.360, 1458.368 625.301, 1458.181 626.280 C 1457.868 627.925, 1458.849 628.038, 1471.171 627.780 C 1482.228 627.548, 1484.500 627.244, 1484.500 626 C 1484.500 625.117, 1483.398 624.373, 1481.823 624.191 C 1480.351 624.020, 1478.669 623.306, 1478.086 622.603 C 1477.390 621.765, 1476.934 608.460, 1476.762 583.995 C 1476.595 560.124, 1476.139 546.593, 1475.500 546.463 C 1474.950 546.351, 1471.125 547.268, 1467 548.500 M 1536.789 546.544 C 1536.490 546.843, 1533.378 547.896, 1529.873 548.884 C 1525.691 550.063, 1523.389 551.251, 1523.177 552.340 C 1522.968 553.411, 1523.518 554, 1524.727 554 C 1528.199 554, 1529 556.077, 1529 565.082 L 1529 573.764 1525.250 572.426 C 1512.623 567.920, 1497.758 574.646, 1491.306 587.786 C 1488.867 592.753, 1488.511 594.610, 1488.584 602 C 1488.682 611.796, 1490.105 615.896, 1495.466 621.831 C 1502.747 629.890, 1514.344 631.273, 1523.663 625.195 L 1528.500 622.040 1529.370 625.609 C 1530.195 628.992, 1530.412 629.145, 1533.542 628.558 C 1545.261 626.360, 1550.501 622.950, 1544.121 621.674 C 1540.141 620.878, 1539.796 618.261, 1540.013 590.545 C 1540.320 551.279, 1540.161 546, 1538.667 546 C 1537.933 546, 1537.089 546.245, 1536.789 546.544 M 1376.500 571.880 C 1362.898 575.472, 1354.989 586.346, 1355.010 601.428 C 1355.026 613.417, 1360.893 622.411, 1371.862 627.263 C 1377.749 629.867, 1389.532 629.344, 1395.628 626.207 C 1416.131 615.659, 1415.810 582.950, 1395.113 573.738 C 1390.247 571.572, 1381.117 570.660, 1376.500 571.880 M 1423.753 573.833 C 1416.063 576.481, 1414.054 578.207, 1417.952 578.818 C 1422.371 579.511, 1423.001 582.284, 1422.986 600.973 C 1422.971 621.270, 1422.711 622.795, 1419.131 623.649 C 1415.850 624.431, 1413.851 625.949, 1414.570 627.113 C 1414.871 627.601, 1421.199 628, 1428.632 628 C 1440.964 628, 1442.117 627.847, 1441.813 626.250 C 1441.626 625.270, 1440.385 624.348, 1438.990 624.154 C 1434.198 623.489, 1434 622.764, 1434 605.838 C 1434 592.115, 1434.265 589.401, 1435.920 586.157 C 1438.556 580.989, 1442.052 579.466, 1445.340 582.052 C 1448.818 584.789, 1452.439 584.529, 1454.927 581.365 C 1457.613 577.951, 1457.540 576.449, 1454.545 573.455 C 1450.222 569.131, 1442.275 571.406, 1437 578.477 L 1434.500 581.828 1434 576.742 C 1433.725 573.944, 1433.050 571.545, 1432.500 571.410 C 1431.950 571.276, 1428.014 572.366, 1423.753 573.833 M 1345.250 572.788 C 1338.138 573.009, 1336 573.398, 1336 574.471 C 1336 575.251, 1337.214 576.007, 1338.750 576.184 C 1343.230 576.699, 1342.748 580.679, 1336.189 597.356 L 1330.345 612.212 1324.173 596.772 C 1317.232 579.412, 1316.873 577.379, 1320.500 576 C 1325.961 573.924, 1322.882 573, 1310.500 573 C 1297.887 573, 1294.820 573.995, 1300.901 576.115 C 1303.019 576.854, 1304.319 578.385, 1305.716 581.789 L 1307.629 586.452 1303.227 596.976 C 1300.806 602.764, 1298.346 608.806, 1297.762 610.401 L 1296.699 613.303 1295.205 609.401 C 1294.383 607.256, 1291.505 599.910, 1288.808 593.078 C 1283.482 579.584, 1283.185 576.890, 1286.926 576.013 C 1288.260 575.701, 1289.535 574.895, 1289.759 574.222 C 1290.066 573.302, 1287.054 573, 1277.583 573 C 1267.500 573, 1265 573.277, 1265 574.392 C 1265 575.157, 1266.136 576.068, 1267.524 576.417 C 1270.460 577.153, 1270.989 578.263, 1282.538 607.874 C 1286.908 619.080, 1291.056 628.468, 1291.755 628.736 C 1294.147 629.654, 1295.779 626.926, 1302.983 609.972 C 1306.949 600.638, 1310.318 593, 1310.469 593 C 1310.620 593, 1314.041 601.119, 1318.073 611.043 C 1324.239 626.222, 1325.705 629.040, 1327.309 628.793 C 1328.791 628.565, 1331.419 623.037, 1339.092 604 C 1348.526 580.597, 1351.074 576, 1354.611 576 C 1356.048 576, 1356.577 573.356, 1355.250 572.809 C 1354.838 572.639, 1350.338 572.629, 1345.250 572.788 M 1373.687 579.233 C 1369.467 583.708, 1368 588.762, 1368 598.829 C 1368 608.492, 1370.504 616.193, 1375.069 620.566 C 1377.766 623.150, 1378.852 623.500, 1384.175 623.500 C 1389.832 623.500, 1390.402 623.281, 1393.074 620.081 C 1400.554 611.121, 1399.001 586.987, 1390.427 578.931 C 1388.714 577.322, 1386.416 576.533, 1382.494 576.208 C 1377.232 575.772, 1376.817 575.914, 1373.687 579.233 M 1508.985 578.250 C 1503.308 582.108, 1501.500 586.999, 1501.500 598.500 C 1501.500 607.578, 1501.750 608.926, 1504.216 613.120 C 1508.712 620.768, 1516.976 623.094, 1525.040 618.980 L 1529 616.959 1529 599.654 C 1529 582.982, 1528.918 582.274, 1526.750 580.299 C 1521.295 575.331, 1514.444 574.540, 1508.985 578.250 M 628 580.872 C 612.023 586.127, 604.528 591.459, 602.003 599.367 C 600.535 603.962, 601.174 610.090, 603.488 613.622 C 608.488 621.253, 624.540 620.199, 634.750 611.569 L 638 608.822 638 593.411 C 638 584.935, 637.663 578.017, 637.250 578.038 C 636.837 578.059, 632.675 579.334, 628 580.872 M 876.969 635.242 C 866.923 642.012, 865.437 654.104, 873.643 662.309 C 879.172 667.839, 886.416 670.192, 899.667 670.764 C 912.632 671.323, 921.586 669.256, 928.783 664.042 C 939.862 656.017, 939.459 642.223, 928 637.212 C 925.464 636.102, 918.855 635.476, 904 634.938 C 892.725 634.529, 882.800 633.912, 881.945 633.565 C 881.074 633.213, 878.887 633.950, 876.969 635.242 M 222.523 735.963 C 221.675 737.335, 225.007 738.067, 227.072 736.961 C 228.133 736.394, 229 735.789, 229 735.617 C 229 734.888, 222.989 735.208, 222.523 735.963" stroke="none" fill="#241b13" fill-rule="evenodd"/>
</g>
</svg>
