<svg viewBox="0 0 100 100" xmlns="http://www.w3.org/2000/svg">
  <defs>
    <linearGradient id="emberGrad" x1="8" y1="85" x2="92" y2="12" gradientUnits="userSpaceOnUse">
      <stop offset="0%" stop-color="#c43a13"/>
      <stop offset="55%" stop-color="#ff8a3d"/>
      <stop offset="100%" stop-color="#ffc178"/>
    </linearGradient>
  </defs>
  <circle cx="50" cy="50" r="44" fill="none" stroke="url(#emberGrad)" stroke-width="2.4"/>
  <g fill="none" stroke="url(#emberGrad)" stroke-width="5" stroke-linecap="round" stroke-linejoin="round">
    <!-- back arm, swept back for counterbalance -->
    <path d="M35,30 C27,33 21,36 17,44"/>
    <!-- front leg, bent forward bearing weight -->
    <path d="M37,46 C42,55 43,63 40,72"/>
    <!-- back leg, trailing extended -->
    <path d="M37,46 C29,51 22,56 17,65"/>
    <!-- torso, leaning into the swing -->
    <path d="M38,26 C37,33 36,40 37,46"/>
    <!-- front arm, raised high mid-swing of the towel -->
    <path d="M40,28 C50,21 58,17 66,14"/>
  </g>
  <circle cx="38" cy="20" r="5.2" fill="url(#emberGrad)"/>
  <path d="M66,14 C71,13 73,16 75,20" fill="none" stroke="url(#emberGrad)" stroke-width="4.4" stroke-linecap="round" stroke-linejoin="round"/>
  <path d="M75.15,31.93 L 74.93,31.50 L 74.78,31.03 L 74.70,30.52 L 74.70,29.99 L 74.79,29.46 L 74.97,28.92 L 75.24,28.41 L 75.60,27.93 L 76.04,27.51 L 76.55,27.15 L 77.13,26.86 L 77.77,26.67 L 78.44,26.57 L 79.14,26.58 L 79.84,26.70 L 80.53,26.93 L 81.19,27.28 L 81.80,27.74 L 82.35,28.29 L 82.81,28.94 L 83.18,29.67 L 83.43,30.46 L 83.56,31.30 L 83.56,32.16 L 83.42,33.04 L 83.15,33.89 L 82.74,34.71 L 82.19,35.47 L 81.53,36.14 L 80.76,36.72 L 79.89,37.18 L 78.94,37.51 L 77.94,37.69 L 76.91,37.71 L 75.86,37.57 L 74.84,37.27 L 73.86,36.81 L 72.95,36.19 L 72.13,35.43 L 71.42,34.54 L 70.86,33.54 L 70.44,32.44 L 70.20,31.28 L 70.14,30.08 L 70.26,28.86 L 70.57,27.67 L 71.07,26.52 L 71.75,25.44 L 72.60,24.47 L 73.60,23.63 L 74.73,22.94 L 75.96,22.43 L 77.28,22.11 L 78.65,21.99 L 80.03,22.08 L 81.41,22.39 L 82.73,22.92 L 83.98,23.64 L 85.11,24.56 L 86.10,25.65 L 86.92,26.90 L 87.54,28.27 L 87.96,29.74 L 88.15,31.27 L 88.10,32.83 L 87.81,34.38 L 87.28,35.89 L 86.52,37.31 L 85.54,38.61 L 84.36,39.75" fill="none" stroke="url(#emberGrad)" stroke-width="4.4" stroke-linecap="round" stroke-linejoin="round"/>
</svg>
